<svg aria-hidden="true" style="position: absolute; width: 0; height: 0; overflow: hidden;" version="1.1" xmlns="http://www.w3.org/2000/svg" xmlns:xlink="http://www.w3.org/1999/xlink">
<defs>
<symbol id="icon-fb" viewBox="0 0 32 32">
<path d="M20.53 5.313h2.921v-5.088c-0.504-0.069-2.237-0.225-4.256-0.225-4.212 0-7.097 2.649-7.097 7.519v4.481h-4.648v5.688h4.648v14.312h5.699v-14.311h4.46l0.708-5.688h-5.169v-3.919c0.001-1.644 0.444-2.769 2.735-2.769z"></path>
</symbol>
<symbol id="icon-instagram" viewBox="0 0 32 32">
<path d="M31.969 9.408c-0.075-1.7-0.35-2.869-0.744-3.882-0.406-1.075-1.032-2.038-1.851-2.838-0.8-0.813-1.769-1.444-2.832-1.844-1.019-0.394-2.182-0.669-3.882-0.744-1.713-0.081-2.257-0.1-6.601-0.1s-4.888 0.019-6.595 0.094c-1.7 0.075-2.869 0.35-3.882 0.744-1.075 0.406-2.038 1.031-2.838 1.85-0.813 0.8-1.444 1.769-1.844 2.832-0.394 1.019-0.669 2.182-0.744 3.882-0.081 1.713-0.1 2.257-0.1 6.601s0.019 4.888 0.094 6.595c0.075 1.7 0.35 2.869 0.744 3.882 0.406 1.075 1.038 2.038 1.85 2.838 0.8 0.813 1.769 1.444 2.832 1.844 1.019 0.394 2.182 0.669 3.882 0.744 1.706 0.075 2.25 0.094 6.595 0.094s4.888-0.019 6.595-0.094c1.7-0.075 2.869-0.35 3.882-0.744 2.151-0.832 3.851-2.532 4.682-4.682 0.394-1.019 0.669-2.182 0.744-3.882 0.075-1.707 0.094-2.251 0.094-6.595s-0.006-4.888-0.081-6.595zM29.087 22.473c-0.069 1.563-0.331 2.407-0.55 2.969-0.538 1.394-1.644 2.5-3.038 3.038-0.563 0.219-1.413 0.481-2.969 0.55-1.688 0.075-2.194 0.094-6.464 0.094s-4.782-0.019-6.464-0.094c-1.563-0.069-2.407-0.331-2.969-0.55-0.694-0.256-1.325-0.663-1.838-1.194-0.531-0.519-0.938-1.144-1.194-1.838-0.219-0.563-0.481-1.413-0.55-2.969-0.075-1.688-0.094-2.194-0.094-6.464s0.019-4.782 0.094-6.464c0.069-1.563 0.331-2.407 0.55-2.969 0.256-0.694 0.663-1.325 1.2-1.838 0.519-0.531 1.144-0.938 1.838-1.194 0.563-0.219 1.413-0.481 2.969-0.55 1.688-0.075 2.194-0.094 6.464-0.094 4.276 0 4.782 0.019 6.464 0.094 1.563 0.069 2.407 0.331 2.969 0.55 0.694 0.256 1.325 0.662 1.838 1.194 0.531 0.519 0.938 1.144 1.194 1.838 0.219 0.563 0.481 1.413 0.55 2.969 0.075 1.688 0.094 2.194 0.094 6.464s-0.019 4.77-0.094 6.458z"></path>
<path d="M16.059 7.783c-4.538 0-8.22 3.682-8.22 8.22s3.682 8.22 8.22 8.22c4.539 0 8.22-3.682 8.22-8.22s-3.682-8.22-8.22-8.22zM16.059 21.335c-2.944 0-5.332-2.388-5.332-5.332s2.388-5.332 5.332-5.332c2.944 0 5.332 2.388 5.332 5.332s-2.388 5.332-5.332 5.332z"></path>
<path d="M26.524 7.458c0 1.060-0.859 1.919-1.919 1.919s-1.919-0.859-1.919-1.919c0-1.060 0.859-1.919 1.919-1.919s1.919 0.859 1.919 1.919z"></path>
</symbol>
<symbol id="icon-linkedin" viewBox="0 0 32 32">
<path d="M31.992 32v-0.001h0.008v-11.736c0-5.741-1.236-10.164-7.948-10.164-3.227 0-5.392 1.771-6.276 3.449h-0.093v-2.913h-6.364v21.364h6.627v-10.579c0-2.785 0.528-5.479 3.977-5.479 3.399 0 3.449 3.179 3.449 5.657v10.401h6.62z"></path>
<path d="M0.528 10.636h6.635v21.364h-6.635v-21.364z"></path>
<path d="M3.843 0c-2.121 0-3.843 1.721-3.843 3.843s1.721 3.879 3.843 3.879c2.121 0 3.843-1.757 3.843-3.879-0.001-2.121-1.723-3.843-3.843-3.843v0z"></path>
</symbol>
<symbol id="icon-twitter" viewBox="0 0 32 32">
<path d="M32 6.078c-1.19 0.522-2.458 0.868-3.78 1.036 1.36-0.812 2.398-2.088 2.886-3.626-1.268 0.756-2.668 1.29-4.16 1.588-1.204-1.282-2.92-2.076-4.792-2.076-3.632 0-6.556 2.948-6.556 6.562 0 0.52 0.044 1.020 0.152 1.496-5.454-0.266-10.28-2.88-13.522-6.862-0.566 0.982-0.898 2.106-0.898 3.316 0 2.272 1.17 4.286 2.914 5.452-1.054-0.020-2.088-0.326-2.964-0.808 0 0.020 0 0.046 0 0.072 0 3.188 2.274 5.836 5.256 6.446-0.534 0.146-1.116 0.216-1.72 0.216-0.42 0-0.844-0.024-1.242-0.112 0.85 2.598 3.262 4.508 6.13 4.57-2.232 1.746-5.066 2.798-8.134 2.798-0.538 0-1.054-0.024-1.57-0.090 2.906 1.874 6.35 2.944 10.064 2.944 12.072 0 18.672-10 18.672-18.668 0-0.29-0.010-0.57-0.024-0.848 1.302-0.924 2.396-2.078 3.288-3.406z"></path>
</symbol>
<symbol id="icon-email" viewBox="0 0 24 32">
<path d="M20 8h-16c-1.1 0-1.99 0.9-1.99 2l-0.010 12c0 1.1 0.9 2 2 2h16c1.1 0 2-0.9 2-2v-12c0-1.1-0.9-2-2-2zM19.6 12.25l-7.070 4.42c-0.32 0.2-0.74 0.2-1.060 0l-7.070-4.42c-0.25-0.16-0.4-0.43-0.4-0.72 0-0.67 0.73-1.070 1.3-0.72l6.7 4.19 6.7-4.19c0.57-0.35 1.3 0.050 1.3 0.72 0 0.29-0.15 0.56-0.4 0.72z"></path>
</symbol>
<symbol id="icon-person" viewBox="0 0 32 32">
<path d="M16 16c2.947 0 5.333-2.387 5.333-5.333s-2.387-5.333-5.333-5.333c-2.947 0-5.333 2.387-5.333 5.333s2.387 5.333 5.333 5.333zM16 18.667c-3.56 0-10.667 1.787-10.667 5.333v1.333c0 0.733 0.6 1.333 1.333 1.333h18.667c0.733 0 1.333-0.6 1.333-1.333v-1.333c0-3.547-7.107-5.333-10.667-5.333z"></path>
</symbol>

<symbol id="icon-checkbox" viewBox="0 0 40 32">
<path fill="#f4f4fd" style="fill: var(--color1, #f4f4fd)" d="M33.782 1.020c0.691-0.662 1.611-1.027 2.565-1.020s1.869 0.387 2.55 1.059c0.681 0.672 1.076 1.584 1.101 2.543s-0.321 1.891-0.966 2.598l-19.578 24.617c-0.337 0.365-0.743 0.657-1.195 0.86s-0.939 0.312-1.434 0.322c-0.495 0.009-0.986-0.082-1.445-0.268s-0.876-0.463-1.226-0.815l-12.984-13.054c-0.362-0.339-0.652-0.747-0.853-1.201s-0.309-0.944-0.318-1.441 0.082-0.99 0.267-1.451c0.185-0.461 0.461-0.879 0.81-1.231s0.766-0.628 1.224-0.814 0.949-0.277 1.443-0.269c0.494 0.009 0.981 0.118 1.433 0.32s0.858 0.494 1.195 0.857l10.275 10.325 17.042-21.83c0.031-0.038 0.063-0.074 0.098-0.109h-0.005z"></path>
</symbol>
<symbol id="icon-map-pin" viewBox="0 0 32 32">
<path fill="none" stroke="#ffffff" style="stroke: var(--color1, #ffffff)" stroke-linejoin="round" stroke-linecap="round" stroke-miterlimit="4" stroke-width="1.3333" d="M26.667 13.818c0 7.636-10.667 14.182-10.667 14.182s-10.667-6.545-10.667-14.182c0-5.422 4.776-9.818 10.667-9.818s10.667 4.396 10.667 9.818v0z"></path>
<path fill="none" stroke="#ffffff" style="stroke: var(--color1, #ffffff)" stroke-linejoin="round" stroke-linecap="round" stroke-miterlimit="4" stroke-width="1.3333" d="M16 18.667c2.209 0 4-1.791 4-4s-1.791-4-4-4-4 1.791-4 4c0 2.209 1.791 4 4 4z"></path>
</symbol>
<symbol id="icon-mail" viewBox="0 0 32 32">
<path fill="none" stroke="#9da4bd" style="stroke: var(--color1, #9da4bd)" stroke-linejoin="round" stroke-linecap="round" stroke-miterlimit="4" stroke-width="1.3333" d="M6.4 6.667h19.2c1.32 0 2.4 1.050 2.4 2.333v14c0 1.283-1.080 2.333-2.4 2.333h-19.2c-1.32 0-2.4-1.050-2.4-2.333v-14c0-1.283 1.080-2.333 2.4-2.333z"></path>
<path fill="none" stroke="#9da4bd" style="stroke: var(--color1, #9da4bd)" stroke-linejoin="round" stroke-linecap="round" stroke-miterlimit="4" stroke-width="1.3333" d="M26.667 9.333l-10.667 8-10.667-8"></path>
</symbol>
<symbol id="icon-phone" viewBox="0 0 32 32">
<path fill="none" stroke="#ffffff" style="stroke: var(--color1, #ffffff)" stroke-linejoin="round" stroke-linecap="round" stroke-miterlimit="4" stroke-width="1.3333" d="M26.666 21.337v3.218c0.002 0.604-0.25 1.181-0.695 1.589s-1.042 0.61-1.643 0.556c-3.301-0.359-6.471-1.487-9.257-3.293-2.592-1.647-4.789-3.844-6.436-6.436-1.813-2.798-2.941-5.984-3.293-9.3-0.054-0.6 0.146-1.195 0.552-1.639s0.98-0.698 1.582-0.699h3.218c1.077-0.011 1.995 0.779 2.145 1.845 0.136 1.030 0.388 2.041 0.751 3.014 0.295 0.784 0.106 1.668-0.483 2.263l-1.362 1.362c1.527 2.685 3.75 4.909 6.436 6.436l1.362-1.362c0.595-0.589 1.479-0.777 2.263-0.483 0.973 0.363 1.984 0.615 3.014 0.751 1.079 0.152 1.872 1.088 1.845 2.177z"></path>
</symbol>
<symbol id="icon-user" viewBox="0 0 32 32">
<path d="M18 22.082v-1.649c2.203-1.241 4-4.337 4-7.432 0-4.971 0-9-6-9s-6 4.029-6 9c0 3.096 1.797 6.191 4 7.432v1.649c-6.784 0.555-12 3.888-12 7.918h28c0-4.030-5.216-7.364-12-7.918z"></path>
</symbol>
<symbol id="icon-cross" viewBox="0 0 32 32">
<path d="M31.708 25.708c-0-0-0-0-0-0l-9.708-9.708 9.708-9.708c0-0 0-0 0-0 0.105-0.105 0.18-0.227 0.229-0.357 0.133-0.356 0.057-0.771-0.229-1.057l-4.586-4.586c-0.286-0.286-0.702-0.361-1.057-0.229-0.13 0.048-0.252 0.124-0.357 0.228 0 0-0 0-0 0l-9.708 9.708-9.708-9.708c-0-0-0-0-0-0-0.105-0.104-0.227-0.18-0.357-0.228-0.356-0.133-0.771-0.057-1.057 0.229l-4.586 4.586c-0.286 0.286-0.361 0.702-0.229 1.057 0.049 0.13 0.124 0.252 0.229 0.357 0 0 0 0 0 0l9.708 9.708-9.708 9.708c-0 0-0 0-0 0-0.104 0.105-0.18 0.227-0.229 0.357-0.133 0.355-0.057 0.771 0.229 1.057l4.586 4.586c0.286 0.286 0.702 0.361 1.057 0.229 0.13-0.049 0.252-0.124 0.357-0.229 0-0 0-0 0-0l9.708-9.708 9.708 9.708c0 0 0 0 0 0 0.105 0.105 0.227 0.18 0.357 0.229 0.356 0.133 0.771 0.057 1.057-0.229l4.586-4.586c0.286-0.286 0.362-0.702 0.229-1.057-0.049-0.13-0.124-0.252-0.229-0.357z"></path>
</symbol>
<symbol id="icon-chevron-thin-up" viewBox="0 0 20 20">
<path d="M2.582 13.891c-0.272 0.268-0.709 0.268-0.979 0s-0.271-0.701 0-0.969l7.908-7.83c0.27-0.268 0.707-0.268 0.979 0l7.908 7.83c0.27 0.268 0.27 0.701 0 0.969s-0.709 0.268-0.978 0l-7.42-7.141-7.418 7.141z"></path>
</symbol>
<symbol id="icon-arrow-right" viewBox="0 0 20 20">
<path d="M16.172 9l-6.071-6.071 1.414-1.414 8.485 8.485-8.485 8.485-1.414-1.414 6.071-6.071h-16.172v-2z"></path>
</symbol>
<symbol id="icon-star-empty" viewBox="0 0 32 32">
<path d="M32 12.408l-11.056-1.607-4.944-10.018-4.944 10.018-11.056 1.607 8 7.798-1.889 11.011 9.889-5.199 9.889 5.199-1.889-11.011 8-7.798zM16 23.547l-6.983 3.671 1.334-7.776-5.65-5.507 7.808-1.134 3.492-7.075 3.492 7.075 7.807 1.134-5.65 5.507 1.334 7.776-6.983-3.671z"></path>
</symbol>
<symbol id="icon-star-full" viewBox="0 0 32 32">
<path d="M32 12.408l-11.056-1.607-4.944-10.018-4.944 10.018-11.056 1.607 8 7.798-1.889 11.011 9.889-5.199 9.889 5.199-1.889-11.011 8-7.798z"></path>
</symbol>
<symbol id="icon-telegram" viewBox="0 0 32 32">
<path d="M16 0c-8.838 0-16 7.162-16 16s7.162 16 16 16 16-7.163 16-16-7.163-16-16-16zM23.863 10.969l-2.625 12.369c-0.181 0.881-0.712 1.087-1.45 0.681l-4-2.956-1.919 1.869c-0.225 0.219-0.4 0.4-0.8 0.4-0.519 0-0.431-0.194-0.606-0.688l-1.363-4.475-3.956-1.231c-0.856-0.262-0.862-0.85 0.194-1.269l15.412-5.95c0.7-0.319 1.381 0.169 1.113 1.25z"></path>
</symbol>
<symbol id="icon-viber" viewBox="0 0 32 32">
<path  d="M15.197 0.003c-2.567 0.035-8.089 0.456-11.179 3.287-2.293 2.28-3.095 5.641-3.188 9.804-0.080 4.147-0.173 11.933 7.333 14.055v3.227c0 0-0.051 1.293 0.803 1.56 1.053 0.333 1.653-0.665 2.653-1.732l1.867-2.107c5.133 0.427 9.067-0.559 9.52-0.705 1.040-0.333 6.908-1.081 7.868-8.869 0.987-8.041-0.48-13.108-3.12-15.401l-0.013-0.003c-0.8-0.733-4-3.067-11.16-3.093 0 0-0.528-0.033-1.384-0.021zM15.287 2.265c0.727-0.004 1.173 0.027 1.173 0.027 6.053 0.013 8.948 1.84 9.628 2.453 2.227 1.905 3.371 6.475 2.533 13.189-0.8 6.507-5.56 6.92-6.44 7.2-0.373 0.12-3.84 0.973-8.203 0.693 0 0-3.252 3.921-4.265 4.935-0.16 0.173-0.347 0.227-0.467 0.2-0.173-0.040-0.227-0.253-0.213-0.547l0.027-5.359c-6.361-1.76-5.988-8.403-5.921-11.869 0.080-3.467 0.733-6.309 2.667-8.229 2.609-2.36 7.3-2.68 9.481-2.693zM15.767 5.732c-0 0-0.001 0-0.001 0-0.22 0-0.399 0.178-0.399 0.399 0 0 0 0 0 0v0c0 0.221 0.179 0.4 0.4 0.4v0c0.043-0.001 0.093-0.001 0.143-0.001 2.034 0 3.88 0.809 5.232 2.123l-0.002-0.002c1.453 1.413 2.161 3.307 2.188 5.787 0 0.221 0.179 0.4 0.4 0.4v0-0.012c0.221 0 0.4-0.179 0.4-0.4v0c0.005-0.109 0.008-0.236 0.008-0.364 0-2.326-0.923-4.436-2.423-5.985l0.002 0.002c-1.587-1.547-3.589-2.347-5.948-2.347zM10.495 6.652c-0.054-0.008-0.116-0.013-0.18-0.013-0.236 0-0.457 0.064-0.646 0.176l0.006-0.003h-0.016c-0.547 0.32-1.051 0.72-1.531 1.253-0.36 0.427-0.561 0.852-0.615 1.265-0.009 0.064-0.014 0.137-0.014 0.212 0 0.182 0.029 0.357 0.084 0.521l-0.003-0.012 0.027 0.013c0.458 1.331 0.998 2.476 1.646 3.549l-0.046-0.082c0.895 1.608 1.922 2.996 3.101 4.237l-0.008-0.009 0.040 0.053 0.053 0.040 0.080 0.080c1.236 1.174 2.628 2.205 4.136 3.053l0.104 0.054c1.76 0.96 2.829 1.413 3.469 1.6v0.013c0.187 0.053 0.357 0.080 0.531 0.080 0.57-0.043 1.079-0.274 1.471-0.631l-0.002 0.002c0.52-0.467 0.933-0.984 1.24-1.531v-0.013c0.307-0.573 0.2-1.121-0.24-1.495-0.845-0.742-1.782-1.421-2.781-2.007l-0.085-0.046c-0.68-0.373-1.373-0.147-1.653 0.227l-0.6 0.759c-0.307 0.373-0.867 0.32-0.867 0.32l-0.016 0.013c-4.16-1.067-5.267-5.279-5.267-5.279s-0.053-0.573 0.333-0.867l0.747-0.6c0.36-0.293 0.613-0.987 0.227-1.667-0.631-1.084-1.31-2.022-2.071-2.887l0.017 0.020c-0.166-0.204-0.399-0.349-0.665-0.399l-0.007-0.001zM16.459 7.839c-0.22 0.001-0.399 0.18-0.399 0.4s0.179 0.4 0.4 0.4c0 0 0.001 0 0.001 0h-0c1.388 0.025 2.636 0.607 3.532 1.532l0.001 0.001c0.75 0.825 1.209 1.926 1.209 3.134 0 0.103-0.003 0.205-0.010 0.306l0.001-0.014c0.001 0.22 0.18 0.399 0.4 0.399 0 0 0 0 0 0v0l0.013 0.016c0 0 0 0 0 0 0.221 0 0.4-0.179 0.4-0.4 0-0 0-0.001 0-0.001v0c0.040-1.587-0.453-2.92-1.427-3.987s-2.333-1.667-4.067-1.787c-0.008-0.001-0.018-0.001-0.028-0.001s-0.020 0-0.029 0.001l0.001-0zM17.112 9.997c-0.004-0-0.008-0-0.012-0-0.225 0-0.407 0.182-0.407 0.408 0 0.221 0.176 0.401 0.395 0.407h0.001c1.32 0.067 1.96 0.733 2.040 2.107 0.007 0.215 0.184 0.387 0.4 0.387 0 0 0 0 0 0h0.013c0.215-0.007 0.388-0.183 0.388-0.4 0-0.009-0-0.019-0.001-0.028l0 0.001c-0.093-1.787-1.067-2.788-2.8-2.881-0.002-0-0.005-0-0.008-0s-0.006 0-0.008 0h0z"></path>
</symbol>
<symbol id="icon-telegram" viewBox="0 0 32 32">
<path d="M16 0c-8.838 0-16 7.162-16 16s7.162 16 16 16 16-7.163 16-16-7.163-16-16-16zM23.863 10.969l-2.625 12.369c-0.181 0.881-0.712 1.087-1.45 0.681l-4-2.956-1.919 1.869c-0.225 0.219-0.4 0.4-0.8 0.4-0.519 0-0.431-0.194-0.606-0.688l-1.363-4.475-3.956-1.231c-0.856-0.262-0.862-0.85 0.194-1.269l15.412-5.95c0.7-0.319 1.381 0.169 1.113 1.25z"></path>
</symbol>
<symbol id="icon-phone-call" viewBox="0 0 24 24">
<path d="M14.859 5.981c0.943 0.184 1.74 0.683 2.31 1.374 0.42 0.51 0.716 1.124 0.852 1.793 0.109 0.541 0.637 0.891 1.178 0.782s0.891-0.637 0.782-1.178c-0.2-0.992-0.64-1.907-1.269-2.669-0.854-1.036-2.057-1.789-3.47-2.064-0.542-0.106-1.067 0.248-1.173 0.79s0.248 1.067 0.79 1.173zM14.94 1.994c2 0.222 3.743 1.162 5.005 2.544 1.118 1.224 1.858 2.794 2.062 4.519 0.065 0.548 0.562 0.941 1.11 0.876s0.941-0.562 0.876-1.11c-0.253-2.147-1.176-4.106-2.571-5.634-1.578-1.728-3.762-2.906-6.261-3.183-0.549-0.061-1.043 0.335-1.104 0.883s0.335 1.043 0.883 1.104zM23 16.92c0.016-0.714-0.236-1.404-0.673-1.943-0.46-0.566-1.129-0.967-1.925-1.080-0.8-0.098-1.695-0.314-2.586-0.646-0.433-0.159-0.893-0.218-1.344-0.174-0.663 0.064-1.307 0.349-1.819 0.855l-0.72 0.72c-1.77-1.117-3.36-2.667-4.583-4.589l0.726-0.726c0.322-0.33 0.563-0.726 0.707-1.156 0.212-0.632 0.214-1.336-0.039-2.011-0.289-0.753-0.518-1.644-0.644-2.595-0.104-0.714-0.456-1.345-0.963-1.804-0.539-0.486-1.256-0.779-2.027-0.771h-2.996c-0.088 0-0.182 0.004-0.273 0.012-0.824 0.075-1.542 0.478-2.033 1.066s-0.758 1.367-0.683 2.199c0.3 3.076 1.365 6.243 3.216 9.102 1.502 2.413 3.648 4.623 6.298 6.306 2.568 1.697 5.684 2.862 9.086 3.231 0.092 0.009 0.191 0.013 0.288 0.013 0.828-0.003 1.578-0.343 2.118-0.887s0.873-1.297 0.87-2.121zM21 16.92v3c0.001 0.28-0.109 0.53-0.29 0.712s-0.429 0.295-0.706 0.296c-3.149-0.336-5.961-1.391-8.263-2.912-2.428-1.543-4.359-3.537-5.702-5.694-1.697-2.62-2.655-5.481-2.924-8.238-0.024-0.268 0.064-0.526 0.229-0.724s0.403-0.33 0.678-0.355l3.088-0.005c0.271-0.003 0.507 0.094 0.687 0.256 0.17 0.154 0.288 0.366 0.323 0.608 0.142 1.072 0.408 2.117 0.757 3.025 0.081 0.216 0.080 0.447 0.010 0.658-0.049 0.145-0.131 0.281-0.242 0.395l-1.262 1.261c-0.324 0.324-0.379 0.814-0.162 1.201 1.584 2.785 3.839 4.957 6.381 6.378 0.397 0.222 0.882 0.144 1.195-0.166l1.27-1.27c0.166-0.164 0.377-0.257 0.598-0.279 0.152-0.015 0.31 0.005 0.459 0.060 1.022 0.381 2.070 0.636 3.034 0.754 0.241 0.034 0.462 0.166 0.615 0.355 0.147 0.181 0.231 0.412 0.226 0.682z"></path>
</symbol>
</defs>
</svg>
